<svg width="14" height="14" viewBox="0 0 14 14" fill="none" xmlns="http://www.w3.org/2000/svg">
<path d="M6.54902 9.078C7.00902 9.26 7.42902 9.502 7.80702 9.803C8.18502 10.103 8.50802 10.453 8.77702 10.849C9.32565 11.6481 9.62113 12.5937 9.62502 13.563V14H8.75002V13.562C8.75189 13.0448 8.65072 12.5324 8.45241 12.0548C8.25411 11.5771 7.96264 11.1438 7.59502 10.78C7.23418 10.4243 6.80985 10.1394 6.34402 9.94C5.85988 9.73257 5.33872 9.62542 4.81202 9.625C4.29484 9.62313 3.78247 9.7243 3.30481 9.9226C2.82716 10.1209 2.39379 10.4124 2.03002 10.78C1.67441 11.1409 1.3895 11.5652 1.19002 12.031C0.984017 12.505 0.880016 13.016 0.875016 13.562V14H1.64354e-05V13.562C-0.00254148 12.5921 0.293531 11.6448 0.848017 10.849C1.40031 10.0522 2.1758 9.4364 3.07702 9.079C2.87228 8.93833 2.68585 8.77272 2.52202 8.586C2.36013 8.4022 2.22019 8.20017 2.10502 7.984C1.9903 7.76802 1.90296 7.53859 1.84502 7.301C1.78593 7.05897 1.75406 6.8111 1.75002 6.562C1.75002 6.139 1.83002 5.742 1.99002 5.373C2.30287 4.64192 2.88513 4.05931 3.61602 3.746C3.99308 3.58548 4.3985 3.50216 4.80831 3.50096C5.21812 3.49976 5.62401 3.5807 6.00202 3.739C6.73328 4.0521 7.31592 4.63473 7.62902 5.366C7.88795 5.97491 7.94303 6.65122 7.78602 7.294C7.72602 7.531 7.63802 7.759 7.52002 7.978C7.40277 8.19476 7.263 8.39855 7.10302 8.586C6.94302 8.773 6.75802 8.936 6.54902 9.078V9.078ZM4.81202 8.75C5.11302 8.75 5.39602 8.693 5.66002 8.58C6.18344 8.35759 6.60006 7.94062 6.82202 7.417C6.94102 7.148 7.00002 6.863 7.00002 6.563C7.0013 6.27664 6.94504 5.99295 6.83459 5.72875C6.72413 5.46455 6.56173 5.22523 6.35702 5.025C6.15453 4.82755 5.91852 4.66773 5.66002 4.553C5.39328 4.43387 5.10414 4.37317 4.81202 4.375C4.51202 4.375 4.22902 4.432 3.96502 4.545C3.4387 4.76948 3.0195 5.18868 2.79502 5.715C2.68202 5.979 2.62502 6.262 2.62502 6.563C2.62502 6.863 2.68202 7.146 2.79502 7.41C2.91002 7.674 3.06502 7.907 3.26102 8.107C3.46392 8.31204 3.70571 8.47452 3.9722 8.58493C4.2387 8.69535 4.52456 8.75146 4.81302 8.75H4.81202ZM14 0V7H12.25L9.62502 9.625V7H8.75002V6.125H10.5V7.513L11.888 6.125H13.125V0.875H4.37502V2.447C4.22835 2.46553 4.08228 2.48854 3.93702 2.516C3.78807 2.54428 3.64185 2.58543 3.50002 2.639V0H14Z" fill="#FE8A37"/>
</svg>
