<svg width="16" height="14" viewBox="0 0 16 14" fill="none" xmlns="http://www.w3.org/2000/svg">
<path fill-rule="evenodd" clip-rule="evenodd" d="M1.50063 12.2928V5.79279H2.50063V12.2928C2.50063 12.4254 2.5533 12.5526 2.64707 12.6463C2.74084 12.7401 2.86802 12.7928 3.00063 12.7928H12.0006C12.1332 12.7928 12.2604 12.7401 12.3542 12.6463C12.4479 12.5526 12.5006 12.4254 12.5006 12.2928V5.79279H13.5006V12.2928C13.5006 12.6906 13.3426 13.0721 13.0613 13.3534C12.78 13.6348 12.3985 13.7928 12.0006 13.7928H3.00063C2.6028 13.7928 2.22127 13.6348 1.93997 13.3534C1.65866 13.0721 1.50063 12.6906 1.50063 12.2928V12.2928ZM12.5006 1.29279V4.79279L10.5006 2.79279V1.29279C10.5006 1.16018 10.5533 1.033 10.6471 0.939232C10.7408 0.845464 10.868 0.792786 11.0006 0.792786H12.0006C12.1332 0.792786 12.2604 0.845464 12.3542 0.939232C12.4479 1.033 12.5006 1.16018 12.5006 1.29279Z" fill="#FE8A37"/>
<path fill-rule="evenodd" clip-rule="evenodd" d="M6.79363 0.292786C6.98116 0.105315 7.23547 0 7.50063 0C7.7658 0 8.0201 0.105315 8.20763 0.292786L14.8546 6.93879C14.9485 7.03267 15.0013 7.16001 15.0013 7.29279C15.0013 7.42556 14.9485 7.5529 14.8546 7.64679C14.7607 7.74067 14.6334 7.79342 14.5006 7.79342C14.3679 7.79342 14.2405 7.74067 14.1466 7.64679L7.50063 0.999786L0.854632 7.64679C0.760745 7.74067 0.633407 7.79342 0.500632 7.79342C0.367856 7.79342 0.240518 7.74067 0.146632 7.64679C0.052745 7.5529 0 7.42556 0 7.29279C0 7.16001 0.052745 7.03267 0.146632 6.93879L6.79363 0.292786Z" fill="#FE8A37"/>
</svg>