<svg width="14" height="15" viewBox="0 0 14 15" fill="none" xmlns="http://www.w3.org/2000/svg">
<path d="M3 4C2.60444 4 2.21776 3.8827 1.88886 3.66294C1.55996 3.44318 1.30362 3.13082 1.15224 2.76537C1.00087 2.39992 0.96126 1.99778 1.03843 1.60982C1.1156 1.22186 1.30608 0.865492 1.58579 0.585787C1.86549 0.306082 2.22186 0.115601 2.60982 0.0384303C2.99778 -0.0387401 3.39992 0.000866562 3.76537 0.152242C4.13082 0.303617 4.44318 0.559962 4.66294 0.88886C4.8827 1.21776 5 1.60444 5 2C5 2.53043 4.78929 3.03914 4.41421 3.41421C4.03914 3.78929 3.53043 4 3 4ZM3 1C2.80222 1 2.60888 1.05865 2.44443 1.16853C2.27998 1.27841 2.15181 1.43459 2.07612 1.61732C2.00043 1.80004 1.98063 2.00111 2.01922 2.19509C2.0578 2.38907 2.15304 2.56726 2.29289 2.70711C2.43275 2.84696 2.61093 2.9422 2.80491 2.98079C2.99889 3.01937 3.19996 2.99957 3.38268 2.92388C3.56541 2.84819 3.72159 2.72002 3.83147 2.55557C3.94135 2.39112 4 2.19778 4 2C4 1.73478 3.89464 1.48043 3.70711 1.29289C3.51957 1.10536 3.26522 1 3 1Z" fill="#FE8A37"/>
<path d="M11 4C10.6044 4 10.2178 3.8827 9.88886 3.66294C9.55996 3.44318 9.30362 3.13082 9.15224 2.76537C9.00087 2.39992 8.96126 1.99778 9.03843 1.60982C9.1156 1.22186 9.30608 0.865492 9.58579 0.585787C9.86549 0.306082 10.2219 0.115601 10.6098 0.0384303C10.9978 -0.0387401 11.3999 0.000866562 11.7654 0.152242C12.1308 0.303617 12.4432 0.559962 12.6629 0.88886C12.8827 1.21776 13 1.60444 13 2C13 2.53043 12.7893 3.03914 12.4142 3.41421C12.0391 3.78929 11.5304 4 11 4ZM11 1C10.8022 1 10.6089 1.05865 10.4444 1.16853C10.28 1.27841 10.1518 1.43459 10.0761 1.61732C10.0004 1.80004 9.98063 2.00111 10.0192 2.19509C10.0578 2.38907 10.153 2.56726 10.2929 2.70711C10.4327 2.84696 10.6109 2.9422 10.8049 2.98079C10.9989 3.01937 11.2 2.99957 11.3827 2.92388C11.5654 2.84819 11.7216 2.72002 11.8315 2.55557C11.9414 2.39112 12 2.19778 12 2C12 1.73478 11.8946 1.48043 11.7071 1.29289C11.5196 1.10536 11.2652 1 11 1Z" fill="#FE8A37"/>
<path d="M12 14.5H10C9.73478 14.5 9.48043 14.3946 9.29289 14.2071C9.10536 14.0196 9 13.7652 9 13.5V10H10V13.5H12V9H13V6C13 5.86739 12.9473 5.74021 12.8536 5.64645C12.7598 5.55268 12.6326 5.5 12.5 5.5H9.29L7 9.5L4.71 5.5H1.5C1.36739 5.5 1.24021 5.55268 1.14645 5.64645C1.05268 5.74021 1 5.86739 1 6V9H2V13.5H4V10H5V13.5C5 13.7652 4.89464 14.0196 4.70711 14.2071C4.51957 14.3946 4.26522 14.5 4 14.5H2C1.73478 14.5 1.48043 14.3946 1.29289 14.2071C1.10536 14.0196 1 13.7652 1 13.5V10C0.734784 10 0.48043 9.89464 0.292893 9.70711C0.105357 9.51957 0 9.26522 0 9V6C0 5.60218 0.158035 5.22064 0.43934 4.93934C0.720644 4.65804 1.10218 4.5 1.5 4.5H5.29L7 7.5L8.71 4.5H12.5C12.8978 4.5 13.2794 4.65804 13.5607 4.93934C13.842 5.22064 14 5.60218 14 6V9C14 9.26522 13.8946 9.51957 13.7071 9.70711C13.5196 9.89464 13.2652 10 13 10V13.5C13 13.7652 12.8946 14.0196 12.7071 14.2071C12.5196 14.3946 12.2652 14.5 12 14.5Z" fill="#FE8A37"/>
</svg>
