<svg width="50" height="50" viewBox="0 0 17 18" fill="none" xmlns="http://www.w3.org/2000/svg"><path d="M16.3292 12.5663H5.04448L5.61108 11.3076L15.0254 11.289C15.3438 11.289 15.6167 11.041 15.6735 10.6979L16.9773 2.73852C17.0114 2.52977 16.9602 2.31482 16.8351 2.15154C16.7733 2.07118 16.6962 2.00645 16.6092 1.96184C16.5221 1.91722 16.4272 1.8938 16.3311 1.89318L4.3547 1.84978L4.25237 1.32481C4.18794 0.989979 3.91127 0.746094 3.5967 0.746094H0.668933C0.491521 0.746094 0.321375 0.822961 0.195926 0.959786C0.0704767 1.09661 0 1.28218 0 1.47568C0 1.66918 0.0704767 1.85476 0.195926 1.99158C0.321375 2.12841 0.491521 2.20527 0.668933 2.20527H3.05473L3.50195 4.52425L4.60294 10.3382L3.18549 12.8618C3.11188 12.9702 3.06754 13.0989 3.05749 13.2333C3.04745 13.3677 3.07209 13.5025 3.12864 13.6224C3.24234 13.8684 3.47163 14.0234 3.72556 14.0234H4.91562C4.66191 14.3909 4.52488 14.8386 4.52525 15.2986C4.52525 16.4684 5.39695 17.4192 6.46951 17.4192C7.54208 17.4192 8.41378 16.4684 8.41378 15.2986C8.41378 14.8377 8.27355 14.3892 8.02341 14.0234H11.0762C10.8225 14.3909 10.6855 14.8386 10.6859 15.2986C10.6859 16.4684 11.5576 17.4192 12.6301 17.4192C13.7027 17.4192 14.5744 16.4684 14.5744 15.2986C14.5744 14.8377 14.4342 14.3892 14.184 14.0234H16.3311C16.6987 14.0234 17 13.6968 17 13.2938C16.9989 13.1005 16.9277 12.9155 16.8021 12.7792C16.6764 12.6429 16.5064 12.5664 16.3292 12.5663ZM4.63326 3.28829L15.5446 3.32756L14.4759 9.8546L5.9048 9.87114L4.63326 3.28829ZM6.46951 15.9517C6.13978 15.9517 5.87069 15.6583 5.87069 15.2986C5.87069 14.939 6.13978 14.6455 6.46951 14.6455C6.79924 14.6455 7.06833 14.939 7.06833 15.2986C7.06833 15.4718 7.00524 15.638 6.89294 15.7604C6.78064 15.8829 6.62833 15.9517 6.46951 15.9517ZM12.6301 15.9517C12.3004 15.9517 12.0313 15.6583 12.0313 15.2986C12.0313 14.939 12.3004 14.6455 12.6301 14.6455C12.9599 14.6455 13.229 14.939 13.229 15.2986C13.229 15.4718 13.1659 15.638 13.0536 15.7604C12.9413 15.8829 12.789 15.9517 12.6301 15.9517Z" fill="white"/></svg>