<svg width="37" height="37" viewBox="0 0 37 37" fill="none" xmlns="http://www.w3.org/2000/svg"><path d="M36.9483 32.9652C36.9483 34.0213 36.5288 35.0342 35.7821 35.7811C35.0353 36.5279 34.0225 36.9476 32.9663 36.9478H3.982C2.92585 36.9476 1.91302 36.5279 1.16627 35.7811C0.419513 35.0342 -1.11692e-08 34.0213 0 32.9652L0 3.982C0.000460477 2.92605 0.420139 1.91348 1.16681 1.16681C1.91348 0.420139 2.92605 0.000460477 3.982 0L32.9663 0C34.0223 0.000307065 35.035 0.419937 35.7817 1.16664C36.5284 1.91334 36.948 2.926 36.9483 3.982V32.9652Z" fill="#606060"/><path d="M31.1998 8.1899C30.6562 7.72563 29.9505 7.49619 29.2378 7.55202C28.5251 7.60784 27.8638 7.94436 27.3991 8.48761L15.7919 22.0623L9.54758 16.8495C9.30037 16.6369 9.01337 16.4755 8.70324 16.3747C8.39312 16.274 8.06606 16.2359 7.74108 16.2627C7.4161 16.2894 7.09969 16.3805 6.81022 16.5307C6.52076 16.6808 6.26403 16.887 6.05495 17.1372C5.84587 17.3874 5.68862 17.6767 5.59233 17.9882C5.49604 18.2998 5.46263 18.6273 5.49406 18.9519C5.52548 19.2765 5.62111 19.5915 5.77537 19.8788C5.92964 20.1661 6.13947 20.4199 6.39267 20.6253L14.7586 27.6105C15.0166 27.8256 15.3161 27.9852 15.6385 28.0795C15.9608 28.1737 16.2991 28.2006 16.6323 28.1584C16.9857 28.1311 17.3302 28.0344 17.6462 27.8738C17.9621 27.7132 18.2433 27.4918 18.4736 27.2224L31.4958 11.9895C31.9595 11.4456 32.1886 10.74 32.1327 10.0274C32.0767 9.31485 31.7404 8.65359 31.1975 8.18874" fill="#F4F4F4"/></svg>