<svg width="12" height="11" viewBox="0 0 12 11" fill="none" xmlns="http://www.w3.org/2000/svg">
<path d="M1.15994 0C0.307946 0 -0.153788 0.997321 0.397435 1.64698L3.11772 4.85302C3.43437 5.22622 3.43437 5.77378 3.11772 6.14698L0.397435 9.35302C-0.153788 10.0027 0.307946 11 1.15994 11H3.20369C3.49737 11 3.7762 10.8709 3.9662 10.647L5.23749 9.14867C5.63687 8.67797 6.36313 8.67797 6.76251 9.14867L8.0338 10.647C8.2238 10.8709 8.50263 11 8.79631 11H10.8401C11.6921 11 12.1538 10.0027 11.6026 9.35302L8.88228 6.14698C8.56563 5.77378 8.56563 5.22622 8.88228 4.85302L11.6026 1.64698C12.1538 0.997321 11.6921 0 10.8401 0H8.79631C8.50263 0 8.2238 0.129092 8.0338 0.353023L6.76251 1.85133C6.36313 2.32203 5.63687 2.32203 5.23749 1.85133L3.9662 0.353023C3.7762 0.129092 3.49737 0 3.20369 0H1.15994Z" fill="#E5E5E5"/>
</svg>
