<svg viewBox="0 0 1025 1024" fill="none" xmlns="http://www.w3.org/2000/svg">
<path d="M896.428 896L907.428 904C900.095 910.667 896.428 918.667 896.428 928C896.428 936.667 899.595 944.167 905.928 950.5C912.262 956.833 919.762 960 928.428 960H981.428L998.428 973C972.428 1007 938.428 1024 896.428 1024H128.428C93.0949 1024 62.9282 1011.5 37.9282 986.5C12.9282 961.5 0.428223 931.333 0.428223 896V128C0.428223 92.6667 12.9282 62.5 37.9282 37.5C62.9282 12.5 93.0949 0 128.428 0H896.428C938.428 0 972.428 17 998.428 51L981.428 64H928.428C919.762 64 912.262 67.1667 905.928 73.5C899.595 79.8333 896.428 87.3333 896.428 96C896.428 105.333 900.095 113.333 907.428 120L896.428 128L1024.43 224L896.428 320L1024.43 416L896.428 512L1024.43 608L896.428 704L1024.43 800L896.428 896ZM544.428 960H608.428C617.095 960 624.595 956.833 630.928 950.5C637.262 944.167 640.428 936.667 640.428 928C640.428 919.333 637.262 911.833 630.928 905.5C624.595 899.167 617.095 896 608.428 896H544.428C535.762 896 528.262 899.167 521.928 905.5C515.595 911.833 512.428 919.333 512.428 928C512.428 936.667 515.595 944.167 521.928 950.5C528.262 956.833 535.762 960 544.428 960ZM704.428 768C739.762 768 769.928 755.5 794.928 730.5C819.928 705.5 832.428 675.333 832.428 640C832.428 604.667 819.928 574.5 794.928 549.5C769.928 524.5 739.762 512 704.428 512C669.095 512 638.928 524.5 613.928 549.5C588.928 574.5 576.428 604.667 576.428 640C576.428 675.333 588.928 705.5 613.928 730.5C638.928 755.5 669.095 768 704.428 768ZM352.428 960H416.428C425.095 960 432.595 956.833 438.928 950.5C445.262 944.167 448.428 936.667 448.428 928C448.428 919.333 445.262 911.833 438.928 905.5C432.595 899.167 425.095 896 416.428 896H352.428C343.762 896 336.262 899.167 329.928 905.5C323.595 911.833 320.428 919.333 320.428 928C320.428 936.667 323.595 944.167 329.928 950.5C336.262 956.833 343.762 960 352.428 960ZM160.428 960H224.428C233.095 960 240.595 956.833 246.928 950.5C253.262 944.167 256.428 936.667 256.428 928C256.428 919.333 253.262 911.833 246.928 905.5C240.595 899.167 233.095 896 224.428 896H160.428C151.762 896 144.262 899.167 137.928 905.5C131.595 911.833 128.428 919.333 128.428 928C128.428 936.667 131.595 944.167 137.928 950.5C144.262 956.833 151.762 960 160.428 960ZM64.4282 832C64.4282 840.667 67.5949 848.167 73.9282 854.5C80.2616 860.833 87.7616 864 96.4282 864C105.095 864 112.595 860.833 118.928 854.5C125.262 848.167 128.428 840.667 128.428 832V768C128.428 759.333 125.262 751.833 118.928 745.5C112.595 739.167 105.095 736 96.4282 736C87.7616 736 80.2616 739.167 73.9282 745.5C67.5949 751.833 64.4282 759.333 64.4282 768V832ZM64.4282 640C64.4282 648.667 67.5949 656.167 73.9282 662.5C80.2616 668.833 87.7616 672 96.4282 672C105.095 672 112.595 668.833 118.928 662.5C125.262 656.167 128.428 648.667 128.428 640V576C128.428 567.333 125.262 559.833 118.928 553.5C112.595 547.167 105.095 544 96.4282 544C87.7616 544 80.2616 547.167 73.9282 553.5C67.5949 559.833 64.4282 567.333 64.4282 576V640ZM64.4282 448C64.4282 456.667 67.5949 464.167 73.9282 470.5C80.2616 476.833 87.7616 480 96.4282 480C105.095 480 112.595 476.833 118.928 470.5C125.262 464.167 128.428 456.667 128.428 448V384C128.428 375.333 125.262 367.833 118.928 361.5C112.595 355.167 105.095 352 96.4282 352C87.7616 352 80.2616 355.167 73.9282 361.5C67.5949 367.833 64.4282 375.333 64.4282 384V448ZM96.4282 160C87.7616 160 80.2616 163.167 73.9282 169.5C67.5949 175.833 64.4282 183.333 64.4282 192V256C64.4282 264.667 67.5949 272.167 73.9282 278.5C80.2616 284.833 87.7616 288 96.4282 288C105.095 288 112.595 284.833 118.928 278.5C125.262 272.167 128.428 264.667 128.428 256V192C128.428 183.333 125.262 175.833 118.928 169.5C112.595 163.167 105.095 160 96.4282 160ZM224.428 64H160.428C151.762 64 144.262 67.1667 137.928 73.5C131.595 79.8333 128.428 87.3333 128.428 96C128.428 104.667 131.595 112.167 137.928 118.5C144.262 124.833 151.762 128 160.428 128H224.428C233.095 128 240.595 124.833 246.928 118.5C253.262 112.167 256.428 104.667 256.428 96C256.428 87.3333 253.262 79.8333 246.928 73.5C240.595 67.1667 233.095 64 224.428 64ZM416.428 64H352.428C343.762 64 336.262 67.1667 329.928 73.5C323.595 79.8333 320.428 87.3333 320.428 96C320.428 104.667 323.595 112.167 329.928 118.5C336.262 124.833 343.762 128 352.428 128H416.428C425.095 128 432.595 124.833 438.928 118.5C445.262 112.167 448.428 104.667 448.428 96C448.428 87.3333 445.262 79.8333 438.928 73.5C432.595 67.1667 425.095 64 416.428 64ZM384.428 256C349.095 256 318.928 268.5 293.928 293.5C268.928 318.5 256.428 348.667 256.428 384C256.428 419.333 268.928 449.5 293.928 474.5C318.928 499.5 349.095 512 384.428 512C419.762 512 449.928 499.5 474.928 474.5C499.928 449.5 512.428 419.333 512.428 384C512.428 348.667 499.928 318.5 474.928 293.5C449.928 268.5 419.762 256 384.428 256ZM608.428 64H544.428C535.762 64 528.262 67.1667 521.928 73.5C515.595 79.8333 512.428 87.3333 512.428 96C512.428 104.667 515.595 112.167 521.928 118.5C528.262 124.833 535.762 128 544.428 128H608.428C617.095 128 624.595 124.833 630.928 118.5C637.262 112.167 640.428 104.667 640.428 96C640.428 87.3333 637.262 79.8333 630.928 73.5C624.595 67.1667 617.095 64 608.428 64ZM689.928 260.5C682.928 256.167 675.428 255 667.428 257C659.428 259 653.095 264 648.428 272L388.428 721C384.428 728.333 383.428 736.333 385.428 745C387.428 753.667 392.095 760.167 399.428 764.5C406.762 768.833 414.428 769.833 422.428 767.5C430.428 765.167 436.428 760.333 440.428 753L701.428 303C705.428 295.667 706.262 287.833 703.928 279.5C701.595 271.167 696.928 264.833 689.928 260.5ZM800.428 64H736.428C727.762 64 720.262 67.1667 713.928 73.5C707.595 79.8333 704.428 87.3333 704.428 96C704.428 104.667 707.595 112.167 713.928 118.5C720.262 124.833 727.762 128 736.428 128H800.428C809.095 128 816.595 124.833 822.928 118.5C829.262 112.167 832.428 104.667 832.428 96C832.428 87.3333 829.262 79.8333 822.928 73.5C816.595 67.1667 809.095 64 800.428 64ZM800.428 896H736.428C727.762 896 720.262 899.167 713.928 905.5C707.595 911.833 704.428 919.333 704.428 928C704.428 936.667 707.595 944.167 713.928 950.5C720.262 956.833 727.762 960 736.428 960H800.428C809.095 960 816.595 956.833 822.928 950.5C829.262 944.167 832.428 936.667 832.428 928C832.428 919.333 829.262 911.833 822.928 905.5C816.595 899.167 809.095 896 800.428 896ZM384.928 448C367.262 448 352.095 441.667 339.428 429C326.762 416.333 320.428 401.167 320.428 383.5C320.428 365.833 326.762 350.833 339.428 338.5C352.095 326.167 367.262 320 384.928 320C402.595 320 417.595 326.167 429.928 338.5C442.262 350.833 448.428 365.833 448.428 383.5C448.428 401.167 442.262 416.333 429.928 429C417.595 441.667 402.595 448 384.928 448ZM704.928 576C722.595 576 737.595 582.167 749.928 594.5C762.262 606.833 768.428 621.833 768.428 639.5C768.428 657.167 762.262 672.333 749.928 685C737.595 697.667 722.595 704 704.928 704C687.262 704 672.095 697.667 659.428 685C646.762 672.333 640.428 657.167 640.428 639.5C640.428 621.833 646.762 606.833 659.428 594.5C672.095 582.167 687.262 576 704.928 576Z" fill="black"/>
</svg>