<svg width="43" height="50" viewBox="0 0 43 50" fill="none" xmlns="http://www.w3.org/2000/svg"><path d="M17.0527 20.6154C15.6521 20.6154 14.5464 21.844 14.5464 23.3429C14.5464 24.8417 15.6767 26.0703 17.0527 26.0703C18.4532 26.0703 19.559 24.8417 19.559 23.3429C19.5835 21.844 18.4532 20.6154 17.0527 20.6154ZM26.0212 20.6154C24.6207 20.6154 23.515 21.844 23.515 23.3429C23.515 24.8417 24.6452 26.0703 26.0212 26.0703C27.4218 26.0703 28.5275 24.8417 28.5275 23.3429C28.5275 21.844 27.4218 20.6154 26.0212 20.6154Z" fill="#606060"/><path d="M37.9629 0H5.03714C2.26057 0 0 2.26057 0 5.06171V38.2823C0 41.0834 2.26057 43.344 5.03714 43.344H32.9011L31.5989 38.7983L34.744 41.7223L37.7171 44.4743L43 49.1429V5.06171C43 2.26057 40.7394 0 37.9629 0ZM28.4783 32.0903C28.4783 32.0903 27.5937 31.0337 26.8566 30.1C30.0754 29.1909 31.304 27.176 31.304 27.176C30.2966 27.8394 29.3383 28.3063 28.4783 28.6257C27.2497 29.1417 26.0703 29.4857 24.9154 29.6823C22.811 30.0697 20.6528 30.0614 18.5514 29.6577C17.3177 29.4163 16.1087 29.0627 14.9394 28.6011C14.3231 28.3641 13.7238 28.085 13.1457 27.7657C13.072 27.7166 12.9983 27.692 12.9246 27.6429C12.8754 27.6183 12.8509 27.5937 12.8263 27.5691C12.384 27.3234 12.1383 27.1514 12.1383 27.1514C12.1383 27.1514 13.3177 29.1171 16.4383 30.0509C15.7011 30.9846 14.792 32.0903 14.792 32.0903C9.36171 31.9183 7.29771 28.3554 7.29771 28.3554C7.29771 20.4434 10.836 14.0303 10.836 14.0303C14.3743 11.3766 17.7406 11.4503 17.7406 11.4503L17.9863 11.7451C13.5634 13.0229 11.524 14.964 11.524 14.964C11.524 14.964 12.0646 14.6691 12.9737 14.2514C15.6029 13.0966 17.6914 12.7771 18.5514 12.7034C18.6989 12.6789 18.8217 12.6543 18.9691 12.6543C23.2301 12.0776 27.5635 12.8874 31.3286 14.964C31.3286 14.964 29.3874 13.1211 25.2103 11.8434L25.5543 11.4503C25.5543 11.4503 28.9206 11.3766 32.4589 14.0303C32.4589 14.0303 35.9971 20.4434 35.9971 28.3554C35.9971 28.3554 33.9086 31.9183 28.4783 32.0903Z" fill="#606060"/></svg>