<svg width="46" height="40" viewBox="0 0 46 40" fill="none" xmlns="http://www.w3.org/2000/svg"><path d="M17.2 40C17.7523 40 18.2 39.5523 18.2 39V26.8824C18.2 26.3301 18.6477 25.8824 19.2 25.8824H26.8C27.3523 25.8824 27.8 26.3301 27.8 26.8824V39C27.8 39.5523 28.2477 40 28.8 40H38.8C39.3523 40 39.8 39.5523 39.8 39V22.1765C39.8 21.6242 40.2477 21.1765 40.8 21.1765H44.3552C45.2766 21.1765 45.7077 20.0362 45.0169 19.4266L23.6616 0.583782C23.2836 0.250233 22.7164 0.250234 22.3384 0.583784L0.98315 19.4266C0.292309 20.0362 0.723451 21.1765 1.64477 21.1765H5.2C5.75228 21.1765 6.2 21.6242 6.2 22.1765V39C6.2 39.5523 6.64772 40 7.2 40H17.2Z" fill="#606060"/></svg>