<svg width="43" height="46" viewBox="0 0 43 46" fill="none" xmlns="http://www.w3.org/2000/svg"><path d="M21.4942 15.3301C17.5464 15.3301 14.3246 18.7766 14.3246 23C14.3246 27.2234 17.5464 30.6699 21.4942 30.6699C25.4421 30.6699 28.6638 27.2234 28.6638 23C28.6638 18.7766 25.4421 15.3301 21.4942 15.3301ZM42.9976 23C42.9976 19.8239 43.0245 16.6765 42.8578 13.5061C42.691 9.8236 41.9058 6.55539 39.3886 3.86257C36.8661 1.164 33.8164 0.329683 30.3742 0.151312C27.4052 -0.0270581 24.4632 0.00171146 21.4996 0.00171146C18.5306 0.00171146 15.5886 -0.0270581 12.625 0.151312C9.18276 0.329683 6.12775 1.16975 3.6106 3.86257C1.08806 6.56114 0.308176 9.8236 0.141442 13.5061C-0.0252929 16.6822 0.00159981 19.8296 0.00159981 23C0.00159981 26.1704 -0.0252929 29.3235 0.141442 32.4939C0.308176 36.1764 1.09344 39.4446 3.6106 42.1374C6.13313 44.836 9.18276 45.6703 12.625 45.8487C15.594 46.0271 18.536 45.9983 21.4996 45.9983C24.4685 45.9983 27.4106 46.0271 30.3742 45.8487C33.8164 45.6703 36.8715 44.8302 39.3886 42.1374C41.9111 39.4389 42.691 36.1764 42.8578 32.4939C43.0299 29.3235 42.9976 26.1761 42.9976 23ZM21.4942 34.8012C15.3896 34.8012 10.4628 29.5307 10.4628 23C10.4628 16.4693 15.3896 11.1988 21.4942 11.1988C27.5989 11.1988 32.5256 16.4693 32.5256 23C32.5256 29.5307 27.5989 34.8012 21.4942 34.8012ZM32.9774 13.4716C31.5521 13.4716 30.4011 12.2402 30.4011 10.7155C30.4011 9.19067 31.5521 7.95934 32.9774 7.95934C34.4027 7.95934 35.5537 9.19067 35.5537 10.7155C35.5541 11.0775 35.4878 11.4361 35.3585 11.7707C35.2291 12.1053 35.0394 12.4093 34.8001 12.6653C34.5608 12.9213 34.2766 13.1243 33.9638 13.2627C33.651 13.401 33.3158 13.472 32.9774 13.4716Z" fill="#606060"/></svg>