<svg width="38" height="47" viewBox="0 0 38 47" fill="none" xmlns="http://www.w3.org/2000/svg"><path d="M36.6087 27.2568C36.1801 26.6491 36.024 25.8948 36.185 25.1687C36.2791 24.7443 36.3264 24.3109 36.3262 23.8762C36.3262 21.4594 34.8839 19.3708 32.7893 18.3732C32.3189 18.1491 31.9212 17.7959 31.6656 17.3419C29.7281 13.9011 27.2774 11.2846 24.0593 10.0463C25.5355 7.24941 27.704 4.73989 29.5049 2.92868C30.5827 1.84456 29.8193 0 28.2905 0H11.6146C10.0907 0 9.3289 1.83144 10.3934 2.92185C12.0548 4.62363 13.9799 6.99434 15.2637 9.83014C11.4513 11.0524 9.60241 14.3253 6.77406 20.5911C6.48312 21.2357 5.93926 21.7296 5.27196 21.9638C2.19727 23.043 0 25.9002 0 29.2558C0 30.9182 0.539541 32.4582 1.45769 33.7204C1.75115 34.124 1.90543 34.6093 1.92287 35.1079C2.13739 41.2554 7.13046 46.0401 19.6497 46.0401C31.4382 46.0401 35.8792 42.0441 36.6446 36.4055C36.6905 36.0679 36.7939 35.74 36.9657 35.4459C37.6239 34.3191 38 33.0168 38 31.6292C37.9999 30.007 37.4864 28.5014 36.6087 27.2568Z" fill="#606060"/><path d="M19.618 12.0202C18.2813 12.0202 17.0264 11.9133 16.0846 11.7192C15.5351 11.606 13.8633 11.2614 13.8633 10.017C13.8633 9.78609 13.955 9.56461 14.1183 9.40131C14.2816 9.23801 14.5031 9.14627 14.734 9.14627C15.121 9.14627 15.449 9.39873 15.5624 9.74785C15.9742 9.97846 17.4264 10.2787 19.6179 10.2787C21.8096 10.2787 23.2618 9.97846 23.6735 9.74785C23.7868 9.39873 24.1148 9.14627 24.5018 9.14627C24.7327 9.14627 24.9542 9.23801 25.1175 9.40131C25.2808 9.56461 25.3726 9.78609 25.3726 10.017C25.3726 11.2614 23.7007 11.6059 23.1514 11.7192C22.2096 11.9132 20.9547 12.0202 19.618 12.0202Z" fill="white"/><path d="M21.7716 20.9137C22.896 21.1318 23.8091 21.5931 24.5885 22.2641C24.7657 22.4166 24.7832 22.6856 24.6318 22.8636L23.619 24.0545C23.472 24.2273 23.2172 24.2526 23.0347 24.1176C22.1932 23.4945 21.3224 23.1977 20.3193 23.1977C19.1901 23.1977 18.4791 23.6787 18.4791 24.536C18.4791 25.4143 19.0019 25.7698 21.1558 26.439C23.7908 27.2755 25.2965 28.3838 25.2965 30.9352C25.2965 32.9738 23.9976 34.5348 21.7467 35.1073C21.5586 35.1551 21.4277 35.326 21.4277 35.5201V38.0566C21.4277 38.1128 21.4167 38.1685 21.3952 38.2204C21.3737 38.2723 21.3421 38.3195 21.3024 38.3592C21.2627 38.3989 21.2155 38.4304 21.1636 38.452C21.1117 38.4735 21.056 38.4845 20.9999 38.4845H19.4507C19.3373 38.4845 19.2284 38.4394 19.1482 38.3592C19.068 38.2789 19.0229 38.1701 19.0229 38.0566V35.6909C19.0229 35.4764 18.8635 35.294 18.6506 35.2675C17.0076 35.0632 15.7424 34.4369 14.8061 33.6345C14.6243 33.4787 14.6111 33.2014 14.7723 33.0243L15.9027 31.7823C16.0544 31.6155 16.3085 31.5972 16.4855 31.7369C17.3954 32.4549 18.4302 32.8591 19.6502 32.8591C21.0095 32.8591 21.8251 32.2318 21.8251 31.1861C21.8251 30.1824 21.3231 29.7222 19.3156 29.0949C16.1788 28.1329 15.0704 26.8364 15.0704 24.787C15.0704 22.7591 16.5257 21.336 18.6818 20.8952C18.7781 20.8755 18.8646 20.8231 18.9268 20.747C18.9889 20.6708 19.0228 20.5756 19.0229 20.4773V18.1882C19.0229 18.0747 19.068 17.9659 19.1482 17.8857C19.2284 17.8055 19.3373 17.7604 19.4507 17.7603H20.9999C21.1133 17.7604 21.2221 17.8055 21.3024 17.8857C21.3826 17.9659 21.4277 18.0747 21.4277 18.1882V20.4951C21.4276 20.5939 21.4618 20.6897 21.5246 20.7661C21.5873 20.8425 21.6746 20.8947 21.7716 20.9137Z" fill="white"/></svg>