<svg width="541" height="495" viewBox="0 0 541 495" fill="none" xmlns="http://www.w3.org/2000/svg">
<path d="M309 201C425.725 161.539 479.001 121.594 541 2L1.00004 1.99995L1 494.5C69.7235 463.834 97.935 435.546 123.5 358.5C174.667 264.468 214.968 229.529 309 201Z" fill="white" fill-opacity="0.2"/>
<path d="M264.824 178.722C380.979 139.455 434.647 121.312 496.5 2L1.50034 7.99999L1.50034 457C70.2238 426.334 43.4405 379.969 78.5003 336.5C138.162 262.53 169.968 207.529 264.001 179L264.824 178.722Z" fill="white" fill-opacity="0.2"/>
<path d="M242.5 159C359.226 119.54 406.501 119.594 468.5 9.15527e-05L0.50019 8.11565e-05L0.500183 427C69.2237 396.334 29.4323 356.363 57 316.5C111.054 238.339 148.468 187.529 242.5 159Z" fill="white" fill-opacity="0.2"/>
</svg>
