<svg width="2093" height="114" viewBox="0 0 2093 114" fill="none" xmlns="http://www.w3.org/2000/svg">
<path d="M1495.5 21C1369.26 52.3508 1306.27 43.6039 1196 21V113H1495.5V21Z" fill="white"/>
<path d="M299.5 21.3966C173.259 52.7474 110.272 44.0005 0 21.3966V113.397H299.5V21.3966Z" fill="white"/>
<path d="M598.5 21.3966C473.863 -5.29582 410.734 -8.9114 299 21.3966V113.397H598.5V21.3966Z" fill="white"/>
<path d="M897.5 21.3966C771.259 52.7474 708.272 44.0005 598 21.3966V113.397H897.5V21.3966Z" fill="white"/>
<path d="M1196.5 21.3966C1071.86 -5.29582 1008.73 -8.9114 897 21.3966V113.397H1196.5V21.3966Z" fill="white"/>
<path d="M2092.5 20.3966C1966.26 51.7474 1903.27 43.0005 1793 20.3966V112.397H2092.5V20.3966Z" fill="white"/>
<path d="M1794.5 21.3966C1669.86 -5.29582 1606.73 -8.9114 1495 21.3966V113.397H1794.5V21.3966Z" fill="white"/>
</svg>