<svg width="16" height="19" viewBox="0 0 16 19" fill="none" xmlns="http://www.w3.org/2000/svg">
<path d="M15.1901 6.49703C15.3111 7.06003 15.2961 7.74303 15.1501 8.54803C14.5681 11.526 12.6731 13.014 9.46711 13.014H9.02511C8.86176 13.013 8.70374 13.0721 8.58111 13.18C8.45404 13.2901 8.36948 13.4412 8.34211 13.607L8.30111 13.796L7.74811 17.275L7.72711 17.426C7.69857 17.5931 7.6109 17.7443 7.48011 17.852C7.3567 17.9606 7.19749 18.0198 7.03311 18.018H4.51011C4.44696 18.0214 4.38394 18.0095 4.32634 17.9834C4.26874 17.9573 4.21825 17.9177 4.17911 17.868C4.13936 17.8173 4.11079 17.7587 4.09528 17.6962C4.07977 17.6336 4.07767 17.5685 4.08911 17.505C4.15011 17.132 4.23711 16.567 4.35611 15.816C4.47311 15.066 4.56211 14.502 4.62311 14.127C4.68411 13.752 4.77311 13.189 4.89511 12.442C5.01611 11.694 5.10711 11.132 5.16611 10.757C5.19911 10.509 5.34511 10.386 5.59911 10.386H6.91511C7.80811 10.399 8.59711 10.329 9.29011 10.175C10.4621 9.91303 11.4241 9.43103 12.1761 8.72603C12.8611 8.08903 13.3791 7.26403 13.7361 6.25303C13.8981 5.78303 14.0131 5.33603 14.0881 4.91503C14.0941 4.87403 14.1021 4.84903 14.1131 4.84103C14.1211 4.83003 14.1351 4.82703 14.1481 4.83003C14.1698 4.83972 14.1906 4.85144 14.2101 4.86503C14.7341 5.26303 15.0641 5.80603 15.1901 6.49703ZM13.4621 3.66103C13.4621 4.37803 13.3081 5.16903 12.9971 6.03503C12.4601 7.59703 11.4501 8.65303 9.96011 9.20303C9.20211 9.47203 8.35811 9.61103 7.42511 9.62803C7.42511 9.63403 7.12411 9.63503 6.52111 9.63503L5.61811 9.62803C4.94611 9.62803 4.55111 9.94803 4.43111 10.592C4.41811 10.645 4.13311 12.422 3.57611 15.921C3.56811 15.987 3.52811 16.023 3.45511 16.023H0.490111C0.420235 16.0245 0.350901 16.0105 0.287098 15.9819C0.223294 15.9534 0.166606 15.9111 0.121111 15.858C0.0739056 15.8058 0.0390574 15.7437 0.0191498 15.6761C-0.000757838 15.6086 -0.00521456 15.5375 0.00611068 15.468L2.33811 0.673031C2.36798 0.483706 2.46616 0.311881 2.61411 0.190031C2.75836 0.0658766 2.9428 -0.00164485 3.13311 3.04422e-05H9.14711C9.37511 3.04422e-05 9.70211 0.0440305 10.1261 0.13103C10.5541 0.21503 10.9271 0.325031 11.2491 0.452031C11.9671 0.726031 12.5151 1.14003 12.8941 1.68903C13.2731 2.24103 13.4621 2.89603 13.4621 3.66103Z" fill="white"/>
</svg>
