<svg width="46" height="38" viewBox="0 0 46 38" fill="none" xmlns="http://www.w3.org/2000/svg"><path d="M46 5.04066C44.3084 5.79024 42.4911 6.29671 40.5807 6.52564C42.5519 5.34615 44.0267 3.48976 44.7298 1.30288C42.8778 2.40292 40.8509 3.17723 38.7372 3.59214C37.3158 2.07447 35.4331 1.06853 33.3814 0.73051C31.3297 0.392484 29.2238 0.741282 27.3906 1.72275C25.5574 2.70422 24.0996 4.26345 23.2434 6.15835C22.3872 8.05326 22.1806 10.1778 22.6556 12.2022C18.903 12.0138 15.232 11.0384 11.8807 9.33942C8.52947 7.64041 5.57292 5.25573 3.20294 2.34014C2.39258 3.73801 1.92663 5.35872 1.92663 7.08479C1.92572 8.63864 2.30837 10.1687 3.04062 11.5392C3.77288 12.9097 4.83209 14.0783 6.12428 14.9412C4.62568 14.8935 3.16014 14.4886 1.84964 13.7601V13.8817C1.84949 16.061 2.60334 18.1733 3.98328 19.8601C5.36322 21.5469 7.28426 22.7043 9.42042 23.136C8.03021 23.5122 6.57269 23.5676 5.15793 23.298C5.76063 25.1732 6.93463 26.813 8.51559 27.9878C10.0965 29.1626 12.0053 29.8137 13.9746 29.8498C10.6316 32.4742 6.5029 33.8977 2.2528 33.8914C1.49994 33.8916 0.74771 33.8477 0 33.7598C4.3141 36.5336 9.33602 38.0057 14.4649 38C31.8268 38 41.3182 23.6202 41.3182 11.1487C41.3182 10.7436 41.308 10.3343 41.2898 9.92914C43.136 8.59403 44.7296 6.94074 45.996 5.04673L46 5.04066Z" fill="#606060"/></svg>